<svg xmlns="http://www.w3.org/2000/svg" xmlns:xl="http://www.w3.org/1999/xlink" width="796.966" height="697" version="1.1" viewBox="1126.5 1347.5 796.966 697"><defs><marker id="FilledArrow_Marker" stroke-linejoin="miter" stroke-miterlimit="10" color="#000" markerHeight="8" markerUnits="strokeWidth" markerWidth="10" orient="auto" overflow="visible" viewBox="-1 -4 10 8"><g><path fill="currentColor" stroke="currentColor" stroke-width="1" d="M 8 0 L 0 -3 L 0 3 Z"/></g></marker><marker id="FilledArrow_Marker_2" stroke-linejoin="miter" stroke-miterlimit="10" color="#000" markerHeight="8" markerUnits="strokeWidth" markerWidth="10" orient="auto" overflow="visible" viewBox="-9 -4 10 8"><g><path fill="currentColor" stroke="currentColor" stroke-width="1" d="M -8 0 L 0 3 L 0 -3 Z"/></g></marker></defs><g id="Canvas_18" fill="none" fill-opacity="1" stroke="none" stroke-dasharray="none" stroke-opacity="1"><title>Canvas 18</title><g id="Canvas_18_Layer_2"><title>Layer 2</title><g id="Graphic_65"><rect width="139.862" height="253.537" x="1177" y="1697.379" fill="#ffc0c0"/><rect width="139.862" height="253.537" x="1177" y="1697.379" stroke="#000" stroke-linecap="round" stroke-linejoin="round" stroke-width="1"/><text fill="#000" transform="translate(1182 1814.9241)"><tspan x="33.675" y="15" fill="#000" font-family="Helvetica Neue" font-size="16">Big Core</tspan></text></g><g id="Graphic_64"><rect width="179.931" height="92.95" x="1316.862" y="1604.429" fill="#c0ffff"/><rect width="179.931" height="92.95" x="1316.862" y="1604.429" stroke="#000" stroke-linecap="round" stroke-linejoin="round" stroke-width="1"/><text fill="#000" transform="translate(1321.8617 1641.6804)"><tspan x="55.469" y="15" fill="#000" font-family="Helvetica Neue" font-size="16">L2 Bank</tspan></text></g><g id="Graphic_63"><rect width="179.931" height="92.95" x="1316.862" y="1697.379" fill="#c0ffff"/><rect width="179.931" height="92.95" x="1316.862" y="1697.379" stroke="#000" stroke-linecap="round" stroke-linejoin="round" stroke-width="1"/><text fill="#000" transform="translate(1321.8617 1734.6304)"><tspan x="55.469" y="15" fill="#000" font-family="Helvetica Neue" font-size="16">L2 Bank</tspan></text></g><g id="Graphic_60"><rect width="134.69" height="163.213" x="1316.862" y="1441.083" fill="#c0ffc0"/><rect width="134.69" height="163.213" x="1316.862" y="1441.083" stroke="#000" stroke-linecap="round" stroke-linejoin="round" stroke-width="1"/><text fill="#000" transform="translate(1321.8617 1513.4657)"><tspan x="13.881" y="15" fill="#000" font-family="Helvetica Neue" font-size="16">Medium Core</tspan></text></g><g id="Graphic_55"><rect width="89.965" height="80.294" x="1541" y="1790.329" fill="#c0ffc0"/><rect width="89.965" height="80.294" x="1541" y="1790.329" stroke="#000" stroke-linecap="round" stroke-linejoin="round" stroke-width="1"/><text fill="#000" transform="translate(1546 1821.2523)"><tspan x=".719" y="15" fill="#000" font-family="Helvetica Neue" font-size="16">Small Core</tspan></text></g><g id="Graphic_54"><rect width="89.965" height="80.294" x="1541" y="1870.623" fill="#c0ffc0"/><rect width="89.965" height="80.294" x="1541" y="1870.623" stroke="#000" stroke-linecap="round" stroke-linejoin="round" stroke-width="1"/><text fill="#000" transform="translate(1546 1901.546)"><tspan x=".719" y="15" fill="#000" font-family="Helvetica Neue" font-size="16">Small Core</tspan></text></g><g id="Graphic_53"><rect width="89.965" height="80.294" x="1630.966" y="1790.329" fill="#c0ffc0"/><rect width="89.965" height="80.294" x="1630.966" y="1790.329" stroke="#000" stroke-linecap="round" stroke-linejoin="round" stroke-width="1"/><text fill="#000" transform="translate(1635.9655 1821.2523)"><tspan x=".719" y="15" fill="#000" font-family="Helvetica Neue" font-size="16">Small Core</tspan></text></g><g id="Graphic_52"><rect width="89.965" height="80.294" x="1630.966" y="1870.623" fill="#c0ffc0"/><rect width="89.965" height="80.294" x="1630.966" y="1870.623" stroke="#000" stroke-linecap="round" stroke-linejoin="round" stroke-width="1"/><text fill="#000" transform="translate(1635.9655 1901.546)"><tspan x=".719" y="15" fill="#000" font-family="Helvetica Neue" font-size="16">Small Core</tspan></text></g><g id="Graphic_51"><rect width="202.035" height="231.861" x="1720.931" y="1428.227" fill="#ffffc0"/><rect width="202.035" height="231.861" x="1720.931" y="1428.227" stroke="#000" stroke-linecap="round" stroke-linejoin="round" stroke-width="1"/><text fill="#000" transform="translate(1725.931 1534.9336)"><tspan x="41.497" y="15" fill="#000" font-family="Helvetica Neue" font-size="16">ML Accelerator</tspan></text></g><g id="Graphic_50"><rect width="134.69" height="163.213" x="1451.551" y="1441.083" fill="#c0ffc0"/><rect width="134.69" height="163.213" x="1451.551" y="1441.083" stroke="#000" stroke-linecap="round" stroke-linejoin="round" stroke-width="1"/><text fill="#000" transform="translate(1456.5514 1513.4657)"><tspan x="13.881" y="15" fill="#000" font-family="Helvetica Neue" font-size="16">Medium Core</tspan></text></g><g id="Graphic_49"><rect width="134.69" height="163.213" x="1586.241" y="1441.083" fill="#c0ffc0"/><rect width="134.69" height="163.213" x="1586.241" y="1441.083" stroke="#000" stroke-linecap="round" stroke-linejoin="round" stroke-width="1"/><text fill="#000" transform="translate(1591.2412 1513.4657)"><tspan x="13.881" y="15" fill="#000" font-family="Helvetica Neue" font-size="16">Medium Core</tspan></text></g><g id="Graphic_48"><rect width="397.983" height="92.95" x="1524.983" y="1348.133" fill="#c0c0ff"/><rect width="397.983" height="92.95" x="1524.983" y="1348.133" stroke="#000" stroke-linecap="round" stroke-linejoin="round" stroke-width="1"/><text fill="#000" transform="translate(1529.9828 1385.3841)"><tspan x="139.015" y="15" fill="#000" font-family="Helvetica Neue" font-size="16">DRAM Channel</tspan></text></g><g id="Graphic_47"><rect width="397.983" height="92.95" x="1127" y="1348" fill="#c0c0ff"/><rect width="397.983" height="92.95" x="1127" y="1348" stroke="#000" stroke-linecap="round" stroke-linejoin="round" stroke-width="1"/><text fill="#000" transform="translate(1132 1385.251)"><tspan x="139.015" y="15" fill="#000" font-family="Helvetica Neue" font-size="16">DRAM Channel</tspan></text></g><g id="Graphic_46"><rect width="397.983" height="92.95" x="1524.983" y="1951.05" fill="#c0c0ff"/><rect width="397.983" height="92.95" x="1524.983" y="1951.05" stroke="#000" stroke-linecap="round" stroke-linejoin="round" stroke-width="1"/><text fill="#000" transform="translate(1529.9828 1988.301)"><tspan x="139.015" y="15" fill="#000" font-family="Helvetica Neue" font-size="16">DRAM Channel</tspan></text></g><g id="Graphic_45"><rect width="397.983" height="92.95" x="1127" y="1950.917" fill="#c0c0ff"/><rect width="397.983" height="92.95" x="1127" y="1950.917" stroke="#000" stroke-linecap="round" stroke-linejoin="round" stroke-width="1"/><text fill="#000" transform="translate(1132 1988.168)"><tspan x="139.015" y="15" fill="#000" font-family="Helvetica Neue" font-size="16">DRAM Channel</tspan></text></g><g id="Graphic_44"><rect width="134.69" height="72.791" x="1720.931" y="1878.126" fill="#ffffc0"/><rect width="134.69" height="72.791" x="1720.931" y="1878.126" stroke="#000" stroke-linecap="round" stroke-linejoin="round" stroke-width="1"/><text fill="#000" transform="translate(1725.931 1905.2974)"><tspan x="49.905" y="15" fill="#000" font-family="Helvetica Neue" font-size="16">ISP</tspan></text></g><g id="Graphic_43"><rect width="53" height="253.537" x="1127" y="1697.379" fill="#ccc"/><rect width="53" height="253.537" x="1127" y="1697.379" stroke="#000" stroke-linecap="round" stroke-linejoin="round" stroke-width="1"/><text fill="#000" transform="translate(1132 1814.9241)"><tspan x="10.684" y="15" fill="#000" font-family="Helvetica Neue" font-size="16">I/O</tspan></text></g><g id="Graphic_42"><rect width="101.017" height="149.991" x="1720.931" y="1660.39" fill="#ffc0c0"/><rect width="101.017" height="149.991" x="1720.931" y="1660.39" stroke="#000" stroke-linecap="round" stroke-linejoin="round" stroke-width="1"/><text fill="#000" transform="translate(1725.931 1726.162)"><tspan x="27.877" y="15" fill="#000" font-family="Helvetica Neue" font-size="16">RAM</tspan></text></g><g id="Graphic_41"><rect width="134.69" height="72.057" x="1720.931" y="1810.427" fill="#ffffc0"/><rect width="134.69" height="72.057" x="1720.931" y="1810.427" stroke="#000" stroke-linecap="round" stroke-linejoin="round" stroke-width="1"/><text fill="#000" transform="translate(1725.931 1837.2314)"><tspan x="46.345" y="15" fill="#000" font-family="Helvetica Neue" font-size="16">DSP</tspan></text></g><g id="Graphic_40"><rect width="101.017" height="92.008" x="1821.948" y="1660.39" fill="#ffc0c0"/><rect width="101.017" height="92.008" x="1821.948" y="1660.39" stroke="#000" stroke-linecap="round" stroke-linejoin="round" stroke-width="1"/><text fill="#000" transform="translate(1826.9482 1697.1705)"><tspan x="21.797" y="15" fill="#000" font-family="Helvetica Neue" font-size="16">Debug</tspan></text></g><g id="Graphic_39"><rect width="101.017" height="57.983" x="1821.948" y="1752.398" fill="#ffc0c0"/><rect width="101.017" height="57.983" x="1821.948" y="1752.398" stroke="#000" stroke-linecap="round" stroke-linejoin="round" stroke-width="1"/><text fill="#000" transform="translate(1826.9482 1772.166)"><tspan x="26.245" y="15" fill="#000" font-family="Helvetica Neue" font-size="16">JTAG</tspan></text></g><g id="Graphic_38"><rect width="67.345" height="140.49" x="1855.621" y="1810.427" fill="#ccc"/><rect width="67.345" height="140.49" x="1855.621" y="1810.427" stroke="#000" stroke-linecap="round" stroke-linejoin="round" stroke-width="1"/><text fill="#000" transform="translate(1860.6207 1871.448)"><tspan x="15.048" y="15" fill="#000" font-family="Helvetica Neue" font-size="16">NIC</tspan></text></g><g id="Graphic_89"><rect width="89.965" height="80.294" x="1316.862" y="1790.329" fill="#c0ffc0"/><rect width="89.965" height="80.294" x="1316.862" y="1790.329" stroke="#000" stroke-linecap="round" stroke-linejoin="round" stroke-width="1"/><text fill="#000" transform="translate(1321.8617 1821.2523)"><tspan x=".719" y="15" fill="#000" font-family="Helvetica Neue" font-size="16">Small Core</tspan></text></g><g id="Graphic_88"><rect width="89.965" height="80.294" x="1316.862" y="1870.623" fill="#c0ffc0"/><rect width="89.965" height="80.294" x="1316.862" y="1870.623" stroke="#000" stroke-linecap="round" stroke-linejoin="round" stroke-width="1"/><text fill="#000" transform="translate(1321.8617 1901.546)"><tspan x=".719" y="15" fill="#000" font-family="Helvetica Neue" font-size="16">Small Core</tspan></text></g><g id="Graphic_87"><rect width="89.965" height="80.294" x="1406.827" y="1790.329" fill="#c0ffc0"/><rect width="89.965" height="80.294" x="1406.827" y="1790.329" stroke="#000" stroke-linecap="round" stroke-linejoin="round" stroke-width="1"/><text fill="#000" transform="translate(1411.8271 1821.2523)"><tspan x=".719" y="15" fill="#000" font-family="Helvetica Neue" font-size="16">Small Core</tspan></text></g><g id="Graphic_86"><rect width="89.965" height="80.294" x="1406.827" y="1870.623" fill="#c0ffc0"/><rect width="89.965" height="80.294" x="1406.827" y="1870.623" stroke="#000" stroke-linecap="round" stroke-linejoin="round" stroke-width="1"/><text fill="#000" transform="translate(1411.8271 1901.546)"><tspan x=".719" y="15" fill="#000" font-family="Helvetica Neue" font-size="16">Small Core</tspan></text></g><g id="Graphic_91"><rect width="179.931" height="92.95" x="1541" y="1604.429" fill="#c0ffff"/><rect width="179.931" height="92.95" x="1541" y="1604.429" stroke="#000" stroke-linecap="round" stroke-linejoin="round" stroke-width="1"/><text fill="#000" transform="translate(1546 1641.6804)"><tspan x="55.469" y="15" fill="#000" font-family="Helvetica Neue" font-size="16">L2 Bank</tspan></text></g><g id="Graphic_90"><rect width="179.931" height="92.95" x="1541" y="1697.379" fill="#c0ffff"/><rect width="179.931" height="92.95" x="1541" y="1697.379" stroke="#000" stroke-linecap="round" stroke-linejoin="round" stroke-width="1"/><text fill="#000" transform="translate(1546 1734.6304)"><tspan x="55.469" y="15" fill="#000" font-family="Helvetica Neue" font-size="16">L2 Bank</tspan></text></g><g id="Graphic_92"><rect width="43.604" height="160.721" x="1497.396" y="1790.329" fill="#ccc"/><rect width="43.604" height="160.721" x="1497.396" y="1790.329" stroke="#000" stroke-linecap="round" stroke-linejoin="round" stroke-width="1"/></g><g id="Graphic_93"><rect width="43.207" height="185.9" x="1497.396" y="1604.429" fill="#ffffc0"/><rect width="43.207" height="185.9" x="1497.396" y="1604.429" stroke="#000" stroke-linecap="round" stroke-linejoin="round" stroke-width="1"/></g><g id="Graphic_117"><rect width="139.862" height="256.296" x="1177" y="1441.083" fill="#ffc0c0"/><rect width="139.862" height="256.296" x="1177" y="1441.083" stroke="#000" stroke-linecap="round" stroke-linejoin="round" stroke-width="1"/><text fill="#000" transform="translate(1182 1560.0073)"><tspan x="33.675" y="15" fill="#000" font-family="Helvetica Neue" font-size="16">Big Core</tspan></text></g><g id="Graphic_116"><rect width="53" height="256.296" x="1127" y="1441.083" fill="#ccc"/><rect width="53" height="256.296" x="1127" y="1441.083" stroke="#000" stroke-linecap="round" stroke-linejoin="round" stroke-width="1"/><text fill="#000" transform="translate(1132 1560.0073)"><tspan x="10.684" y="15" fill="#000" font-family="Helvetica Neue" font-size="16">I/O</tspan></text></g></g><g id="Canvas_18_Layer_3"><title>Layer 3</title><g id="Graphic_35"><circle cx="1348" cy="1803.5" r="6.5" fill="#0f0"/><circle cx="1348" cy="1803.5" r="6.5" stroke="#000" stroke-linecap="round" stroke-linejoin="round" stroke-width="1"/></g><g id="Graphic_34"><circle cx="1438" cy="1803.5" r="6.5" fill="#0f0"/><circle cx="1438" cy="1803.5" r="6.5" stroke="#000" stroke-linecap="round" stroke-linejoin="round" stroke-width="1"/></g><g id="Graphic_33"><circle cx="1519" cy="1803.5" r="6.5" fill="#fff"/><circle cx="1519" cy="1803.5" r="6.5" stroke="#000" stroke-linecap="round" stroke-linejoin="round" stroke-width="1"/></g><g id="Graphic_32"><circle cx="1600" cy="1803.5" r="6.5" fill="#0f0"/><circle cx="1600" cy="1803.5" r="6.5" stroke="#000" stroke-linecap="round" stroke-linejoin="round" stroke-width="1"/></g><g id="Graphic_31"><circle cx="1690" cy="1803.5" r="6.5" fill="#0f0"/><circle cx="1690" cy="1803.5" r="6.5" stroke="#000" stroke-linecap="round" stroke-linejoin="round" stroke-width="1"/></g><g id="Graphic_30"><circle cx="1348" cy="1884.5" r="6.5" fill="#0f0"/><circle cx="1348" cy="1884.5" r="6.5" stroke="#000" stroke-linecap="round" stroke-linejoin="round" stroke-width="1"/></g><g id="Graphic_29"><circle cx="1438" cy="1884.5" r="6.5" fill="#0f0"/><circle cx="1438" cy="1884.5" r="6.5" stroke="#000" stroke-linecap="round" stroke-linejoin="round" stroke-width="1"/></g><g id="Graphic_28"><circle cx="1519" cy="1884.5" r="6.5" fill="#fff"/><circle cx="1519" cy="1884.5" r="6.5" stroke="#000" stroke-linecap="round" stroke-linejoin="round" stroke-width="1"/></g><g id="Graphic_27"><circle cx="1600" cy="1884.5" r="6.5" fill="#0f0"/><circle cx="1600" cy="1884.5" r="6.5" stroke="#000" stroke-linecap="round" stroke-linejoin="round" stroke-width="1"/></g><g id="Graphic_26"><circle cx="1690" cy="1884.5" r="6.5" fill="#0f0"/><circle cx="1690" cy="1884.5" r="6.5" stroke="#000" stroke-linecap="round" stroke-linejoin="round" stroke-width="1"/></g><g id="Line_25"><line x1="1364.4" x2="1421.6" y1="1803.5" y2="1803.5" stroke="#000" stroke-linecap="round" stroke-linejoin="round" stroke-width="1" marker-end="url(#FilledArrow_Marker)" marker-start="url(#FilledArrow_Marker_2)"/></g><g id="Line_24"><line x1="1454.4" x2="1502.6" y1="1803.5" y2="1803.5" stroke="#000" stroke-linecap="round" stroke-linejoin="round" stroke-width="1" marker-end="url(#FilledArrow_Marker)" marker-start="url(#FilledArrow_Marker_2)"/></g><g id="Line_23"><line x1="1535.4" x2="1583.6" y1="1803.5" y2="1803.5" stroke="#000" stroke-linecap="round" stroke-linejoin="round" stroke-width="1" marker-end="url(#FilledArrow_Marker)" marker-start="url(#FilledArrow_Marker_2)"/></g><g id="Line_22"><line x1="1616.4" x2="1673.6" y1="1803.5" y2="1803.5" stroke="#000" stroke-linecap="round" stroke-linejoin="round" stroke-width="1" marker-end="url(#FilledArrow_Marker)" marker-start="url(#FilledArrow_Marker_2)"/></g><g id="Line_21"><line x1="1348" x2="1348" y1="1819.9" y2="1868.1" stroke="#000" stroke-linecap="round" stroke-linejoin="round" stroke-width="1" marker-end="url(#FilledArrow_Marker)" marker-start="url(#FilledArrow_Marker_2)"/></g><g id="Line_20"><line x1="1364.4" x2="1421.6" y1="1884.5" y2="1884.5" stroke="#000" stroke-linecap="round" stroke-linejoin="round" stroke-width="1" marker-end="url(#FilledArrow_Marker)" marker-start="url(#FilledArrow_Marker_2)"/></g><g id="Line_19"><line x1="1454.4" x2="1502.6" y1="1884.5" y2="1884.5" stroke="#000" stroke-linecap="round" stroke-linejoin="round" stroke-width="1" marker-end="url(#FilledArrow_Marker)" marker-start="url(#FilledArrow_Marker_2)"/></g><g id="Line_18"><line x1="1535.4" x2="1583.6" y1="1884.5" y2="1884.5" stroke="#000" stroke-linecap="round" stroke-linejoin="round" stroke-width="1" marker-end="url(#FilledArrow_Marker)" marker-start="url(#FilledArrow_Marker_2)"/></g><g id="Line_17"><line x1="1616.4" x2="1673.6" y1="1884.5" y2="1884.5" stroke="#000" stroke-linecap="round" stroke-linejoin="round" stroke-width="1" marker-end="url(#FilledArrow_Marker)" marker-start="url(#FilledArrow_Marker_2)"/></g><g id="Line_16"><line x1="1690" x2="1690" y1="1868.1" y2="1819.9" stroke="#000" stroke-linecap="round" stroke-linejoin="round" stroke-width="1" marker-end="url(#FilledArrow_Marker)" marker-start="url(#FilledArrow_Marker_2)"/></g><g id="Line_15"><line x1="1438" x2="1438" y1="1819.9" y2="1868.1" stroke="#000" stroke-linecap="round" stroke-linejoin="round" stroke-width="1" marker-end="url(#FilledArrow_Marker)" marker-start="url(#FilledArrow_Marker_2)"/></g><g id="Line_14"><line x1="1519" x2="1519" y1="1819.9" y2="1868.1" stroke="#000" stroke-linecap="round" stroke-linejoin="round" stroke-width="1" marker-end="url(#FilledArrow_Marker)" marker-start="url(#FilledArrow_Marker_2)"/></g><g id="Line_13"><line x1="1600" x2="1600" y1="1819.9" y2="1868.1" stroke="#000" stroke-linecap="round" stroke-linejoin="round" stroke-width="1" marker-end="url(#FilledArrow_Marker)" marker-start="url(#FilledArrow_Marker_2)"/></g><g id="Graphic_12"><circle cx="1519" cy="1760" r="6.5" fill="#fff"/><circle cx="1519" cy="1760" r="6.5" stroke="#000" stroke-linecap="round" stroke-linejoin="round" stroke-width="1"/></g><g id="Graphic_11"><circle cx="1357" cy="1760" r="6.5" fill="#0ff"/><circle cx="1357" cy="1760" r="6.5" stroke="#000" stroke-linecap="round" stroke-linejoin="round" stroke-width="1"/></g><g id="Graphic_10"><circle cx="1675" cy="1760" r="6.5" fill="#0ff"/><circle cx="1675" cy="1760" r="6.5" stroke="#000" stroke-linecap="round" stroke-linejoin="round" stroke-width="1"/></g><g id="Graphic_9"><circle cx="1519" cy="1627" r="6.5" fill="#fff"/><circle cx="1519" cy="1627" r="6.5" stroke="#000" stroke-linecap="round" stroke-linejoin="round" stroke-width="1"/></g><g id="Graphic_8"><circle cx="1357" cy="1627" r="6.5" fill="#0ff"/><circle cx="1357" cy="1627" r="6.5" stroke="#000" stroke-linecap="round" stroke-linejoin="round" stroke-width="1"/></g><g id="Graphic_7"><circle cx="1675" cy="1627" r="6.5" fill="#0ff"/><circle cx="1675" cy="1627" r="6.5" stroke="#000" stroke-linecap="round" stroke-linejoin="round" stroke-width="1"/></g><g id="Line_6"><line x1="1373.4" x2="1502.6" y1="1627" y2="1627" stroke="#000" stroke-linecap="round" stroke-linejoin="round" stroke-width="1" marker-end="url(#FilledArrow_Marker)" marker-start="url(#FilledArrow_Marker_2)"/></g><g id="Line_5"><line x1="1535.4" x2="1658.6" y1="1627" y2="1627" stroke="#000" stroke-linecap="round" stroke-linejoin="round" stroke-width="1" marker-end="url(#FilledArrow_Marker)" marker-start="url(#FilledArrow_Marker_2)"/></g><g id="Line_4"><line x1="1357" x2="1357" y1="1643.4" y2="1743.6" stroke="#000" stroke-linecap="round" stroke-linejoin="round" stroke-width="1" marker-end="url(#FilledArrow_Marker)" marker-start="url(#FilledArrow_Marker_2)"/></g><g id="Line_3"><line x1="1373.4" x2="1502.6" y1="1760" y2="1760" stroke="#000" stroke-linecap="round" stroke-linejoin="round" stroke-width="1" marker-end="url(#FilledArrow_Marker)" marker-start="url(#FilledArrow_Marker_2)"/></g><g id="Line_2"><line x1="1535.4" x2="1658.6" y1="1760" y2="1760" stroke="#000" stroke-linecap="round" stroke-linejoin="round" stroke-width="1" marker-end="url(#FilledArrow_Marker)" marker-start="url(#FilledArrow_Marker_2)"/></g><g id="Graphic_68"><circle cx="1519" cy="1582.5" r="6.5" fill="#0f0"/><circle cx="1519" cy="1582.5" r="6.5" stroke="#000" stroke-linecap="round" stroke-linejoin="round" stroke-width="1"/></g><g id="Graphic_69"><circle cx="1415.5" cy="1582.5" r="6.5" fill="#0f0"/><circle cx="1415.5" cy="1582.5" r="6.5" stroke="#000" stroke-linecap="round" stroke-linejoin="round" stroke-width="1"/></g><g id="Graphic_70"><circle cx="1628.5" cy="1582.5" r="6.5" fill="#0f0"/><circle cx="1628.5" cy="1582.5" r="6.5" stroke="#000" stroke-linecap="round" stroke-linejoin="round" stroke-width="1"/></g><g id="Line_71"><line x1="1431.9" x2="1502.6" y1="1582.5" y2="1582.5" stroke="#000" stroke-linecap="round" stroke-linejoin="round" stroke-width="1" marker-end="url(#FilledArrow_Marker)" marker-start="url(#FilledArrow_Marker_2)"/></g><g id="Line_72"><line x1="1535.4" x2="1612.1" y1="1582.5" y2="1582.5" stroke="#000" stroke-linecap="round" stroke-linejoin="round" stroke-width="1" marker-end="url(#FilledArrow_Marker)" marker-start="url(#FilledArrow_Marker_2)"/></g><g id="Line_73"><line x1="1519" x2="1519" y1="1598.9" y2="1610.6" stroke="#000" stroke-linecap="round" stroke-linejoin="round" stroke-width="1" marker-end="url(#FilledArrow_Marker)" marker-start="url(#FilledArrow_Marker_2)"/></g><g id="Graphic_82"><circle cx="1280.5" cy="1760" r="6.5" fill="red"/><circle cx="1280.5" cy="1760" r="6.5" stroke="#000" stroke-linecap="round" stroke-linejoin="round" stroke-width="1"/></g><g id="Graphic_81"><circle cx="1280.5" cy="1627" r="6.5" fill="red"/><circle cx="1280.5" cy="1627" r="6.5" stroke="#000" stroke-linecap="round" stroke-linejoin="round" stroke-width="1"/></g><g id="Line_84"><line x1="1296.9" x2="1340.6" y1="1627" y2="1627" stroke="#000" stroke-linecap="round" stroke-linejoin="round" stroke-width="1" marker-end="url(#FilledArrow_Marker)" marker-start="url(#FilledArrow_Marker_2)"/></g><g id="Line_85"><line x1="1296.9" x2="1340.6" y1="1760" y2="1760" stroke="#000" stroke-linecap="round" stroke-linejoin="round" stroke-width="1" marker-end="url(#FilledArrow_Marker)" marker-start="url(#FilledArrow_Marker_2)"/></g><g id="Line_95"><line x1="1675" x2="1675" y1="1643.4" y2="1743.6" stroke="#000" stroke-linecap="round" stroke-linejoin="round" stroke-width="1" marker-end="url(#FilledArrow_Marker)" marker-start="url(#FilledArrow_Marker_2)"/></g><g id="Graphic_97"><circle cx="1519" cy="1723.171" r="6.5" fill="#fff"/><circle cx="1519" cy="1723.171" r="6.5" stroke="#000" stroke-linecap="round" stroke-linejoin="round" stroke-width="1"/></g><g id="Graphic_98"><circle cx="1406.827" cy="1723.171" r="6.5" fill="#0ff"/><circle cx="1406.827" cy="1723.171" r="6.5" stroke="#000" stroke-linecap="round" stroke-linejoin="round" stroke-width="1"/></g><g id="Graphic_101"><circle cx="1519" cy="1671.25" r="6.5" fill="#fff"/><circle cx="1519" cy="1671.25" r="6.5" stroke="#000" stroke-linecap="round" stroke-linejoin="round" stroke-width="1"/></g><g id="Graphic_100"><circle cx="1406.827" cy="1671.25" r="6.5" fill="#0ff"/><circle cx="1406.827" cy="1671.25" r="6.5" stroke="#000" stroke-linecap="round" stroke-linejoin="round" stroke-width="1"/></g><g id="Graphic_103"><circle cx="1630.767" cy="1723.34" r="6.5" fill="#0ff"/><circle cx="1630.767" cy="1723.34" r="6.5" stroke="#000" stroke-linecap="round" stroke-linejoin="round" stroke-width="1"/></g><g id="Graphic_102"><circle cx="1630.767" cy="1671.419" r="6.5" fill="#0ff"/><circle cx="1630.767" cy="1671.419" r="6.5" stroke="#000" stroke-linecap="round" stroke-linejoin="round" stroke-width="1"/></g><g id="Line_104"><line x1="1519" x2="1519" y1="1643.4" y2="1654.85" stroke="#000" stroke-linecap="round" stroke-linejoin="round" stroke-width="1" marker-end="url(#FilledArrow_Marker)" marker-start="url(#FilledArrow_Marker_2)"/></g><g id="Line_106"><line x1="1519" x2="1519" y1="1787.1" y2="1776.4" stroke="#000" stroke-linecap="round" stroke-linejoin="round" stroke-width="1" marker-end="url(#FilledArrow_Marker)" marker-start="url(#FilledArrow_Marker_2)"/></g><g id="Line_107"><line x1="1502.6" x2="1423.227" y1="1671.25" y2="1671.25" stroke="#000" stroke-linecap="round" stroke-linejoin="round" stroke-width="1" marker-end="url(#FilledArrow_Marker)" marker-start="url(#FilledArrow_Marker_2)"/></g><g id="Line_109"><line x1="1423.227" x2="1502.6" y1="1723.171" y2="1723.171" stroke="#000" stroke-linecap="round" stroke-linejoin="round" stroke-width="1" marker-end="url(#FilledArrow_Marker)" marker-start="url(#FilledArrow_Marker_2)"/></g><g id="Line_110"><line x1="1535.4" x2="1614.367" y1="1723.195" y2="1723.315" stroke="#000" stroke-linecap="round" stroke-linejoin="round" stroke-width="1" marker-end="url(#FilledArrow_Marker)" marker-start="url(#FilledArrow_Marker_2)"/></g><g id="Line_111"><line x1="1535.4" x2="1614.367" y1="1671.275" y2="1671.394" stroke="#000" stroke-linecap="round" stroke-linejoin="round" stroke-width="1" marker-end="url(#FilledArrow_Marker)" marker-start="url(#FilledArrow_Marker_2)"/></g><g id="Line_113"><line x1="1630.767" x2="1630.767" y1="1687.819" y2="1706.94" stroke="#000" stroke-linecap="round" stroke-linejoin="round" stroke-width="1" marker-end="url(#FilledArrow_Marker)" marker-start="url(#FilledArrow_Marker_2)"/></g><g id="Graphic_119"><circle cx="1166.5" cy="1723.421" r="6.5" fill="#666"/><circle cx="1166.5" cy="1723.421" r="6.5" stroke="#000" stroke-linecap="round" stroke-linejoin="round" stroke-width="1"/></g><g id="Graphic_118"><circle cx="1166.5" cy="1671.5" r="6.5" fill="#666"/><circle cx="1166.5" cy="1671.5" r="6.5" stroke="#000" stroke-linecap="round" stroke-linejoin="round" stroke-width="1"/></g><g id="Line_120"><path stroke="#000" stroke-linecap="round" stroke-linejoin="round" stroke-width="1" marker-end="url(#FilledArrow_Marker)" marker-start="url(#FilledArrow_Marker_2)" d="M 1390.4271 1671.267 L 1362.5 1671.2961 L 1356.9943 1665.8018 L 1351.5 1671.3076 L 1182.9 1671.483"/></g><g id="Line_121"><path stroke="#000" stroke-linecap="round" stroke-linejoin="round" stroke-width="1" marker-end="url(#FilledArrow_Marker)" marker-start="url(#FilledArrow_Marker_2)" d="M 1390.4271 1723.1877 L 1362.5 1723.2167 L 1356.9943 1717.7224 L 1351.5 1723.2281 L 1182.9 1723.4035"/></g><g id="Graphic_122"><circle cx="1166.5" cy="1415.042" r="6.5" fill="#00f"/><circle cx="1166.5" cy="1415.042" r="6.5" stroke="#000" stroke-linecap="round" stroke-linejoin="round" stroke-width="1"/></g><g id="Graphic_123"><circle cx="1749.5" cy="1415.042" r="6.5" fill="#00f"/><circle cx="1749.5" cy="1415.042" r="6.5" stroke="#000" stroke-linecap="round" stroke-linejoin="round" stroke-width="1"/></g><g id="Graphic_128"><circle cx="1166.5" cy="1976.796" r="6.5" fill="#00f"/><circle cx="1166.5" cy="1976.796" r="6.5" stroke="#000" stroke-linecap="round" stroke-linejoin="round" stroke-width="1"/></g><g id="Graphic_127"><circle cx="1749.5" cy="1976.796" r="6.5" fill="#00f"/><circle cx="1749.5" cy="1976.796" r="6.5" stroke="#000" stroke-linecap="round" stroke-linejoin="round" stroke-width="1"/></g><g id="Line_129"><line x1="1166.5" x2="1166.5" y1="1665" y2="1431.442" stroke="#000" stroke-linecap="round" stroke-linejoin="round" stroke-width="1" marker-end="url(#FilledArrow_Marker)"/></g><g id="Line_130"><line x1="1173" x2="1733.1" y1="1415.042" y2="1415.042" stroke="#000" stroke-linecap="round" stroke-linejoin="round" stroke-width="1" marker-end="url(#FilledArrow_Marker)"/></g><g id="Line_131"><line x1="1743" x2="1182.9" y1="1976.796" y2="1976.796" stroke="#000" stroke-linecap="round" stroke-linejoin="round" stroke-width="1" marker-end="url(#FilledArrow_Marker)"/></g><g id="Line_132"><line x1="1166.5" x2="1166.5" y1="1970.296" y2="1739.821" stroke="#000" stroke-linecap="round" stroke-linejoin="round" stroke-width="1" marker-end="url(#FilledArrow_Marker)"/></g><g id="Line_133"><line x1="1166.5" x2="1166.5" y1="1716.921" y2="1687.9" stroke="#000" stroke-linecap="round" stroke-linejoin="round" stroke-width="1" marker-end="url(#FilledArrow_Marker)"/></g><g id="Graphic_134"><circle cx="1749.5" cy="1559.5" r="6.5" fill="#ff0"/><circle cx="1749.5" cy="1559.5" r="6.5" stroke="#000" stroke-linecap="round" stroke-linejoin="round" stroke-width="1"/></g><g id="Graphic_135"><circle cx="1749.5" cy="1703.879" r="6.5" fill="red"/><circle cx="1749.5" cy="1703.879" r="6.5" stroke="#000" stroke-linecap="round" stroke-linejoin="round" stroke-width="1"/></g><g id="Graphic_136"><circle cx="1832.896" cy="1824.148" r="6.5" fill="#ff0"/><circle cx="1832.896" cy="1824.148" r="6.5" stroke="#000" stroke-linecap="round" stroke-linejoin="round" stroke-width="1"/></g><g id="Graphic_137"><circle cx="1832.896" cy="1914.521" r="6.5" fill="#ff0"/><circle cx="1832.896" cy="1914.521" r="6.5" stroke="#000" stroke-linecap="round" stroke-linejoin="round" stroke-width="1"/></g><g id="Graphic_138"><circle cx="1749.5" cy="1864.123" r="6.5" fill="#fff"/><circle cx="1749.5" cy="1864.123" r="6.5" stroke="#000" stroke-linecap="round" stroke-linejoin="round" stroke-width="1"/></g><g id="Line_140"><line x1="1749.5" x2="1749.5" y1="1421.542" y2="1543.1" stroke="#000" stroke-linecap="round" stroke-linejoin="round" stroke-width="1" marker-end="url(#FilledArrow_Marker)"/></g><g id="Line_141"><line x1="1749.5" x2="1749.5" y1="1566" y2="1687.479" stroke="#000" stroke-linecap="round" stroke-linejoin="round" stroke-width="1" marker-end="url(#FilledArrow_Marker)"/></g><g id="Line_142"><line x1="1749.5" x2="1749.5" y1="1710.379" y2="1847.723" stroke="#000" stroke-linecap="round" stroke-linejoin="round" stroke-width="1" marker-end="url(#FilledArrow_Marker)"/></g><g id="Line_143"><line x1="1749.5" x2="1749.5" y1="1870.623" y2="1960.396" stroke="#000" stroke-linecap="round" stroke-linejoin="round" stroke-width="1" marker-end="url(#FilledArrow_Marker)"/></g><g id="Graphic_145"><circle cx="1832.896" cy="1864.123" r="6.5" fill="#fff"/><circle cx="1832.896" cy="1864.123" r="6.5" stroke="#000" stroke-linecap="round" stroke-linejoin="round" stroke-width="1"/></g><g id="Graphic_146"><circle cx="1886.552" cy="1864.123" r="6.5" fill="#666"/><circle cx="1886.552" cy="1864.123" r="6.5" stroke="#000" stroke-linecap="round" stroke-linejoin="round" stroke-width="1"/></g><g id="Line_147"><line x1="1832.896" x2="1832.896" y1="1840.548" y2="1847.723" stroke="#000" stroke-linecap="round" stroke-linejoin="round" stroke-width="1" marker-end="url(#FilledArrow_Marker)" marker-start="url(#FilledArrow_Marker_2)"/></g><g id="Line_148"><line x1="1870.152" x2="1849.296" y1="1864.123" y2="1864.123" stroke="#000" stroke-linecap="round" stroke-linejoin="round" stroke-width="1" marker-end="url(#FilledArrow_Marker)" marker-start="url(#FilledArrow_Marker_2)"/></g><g id="Line_149"><line x1="1832.896" x2="1832.896" y1="1898.121" y2="1880.523" stroke="#000" stroke-linecap="round" stroke-linejoin="round" stroke-width="1" marker-end="url(#FilledArrow_Marker)" marker-start="url(#FilledArrow_Marker_2)"/></g><g id="Line_150"><line x1="1816.496" x2="1765.9" y1="1864.123" y2="1864.123" stroke="#000" stroke-linecap="round" stroke-linejoin="round" stroke-width="1" marker-end="url(#FilledArrow_Marker)" marker-start="url(#FilledArrow_Marker_2)"/></g><g id="Graphic_151"><circle cx="1836.5" cy="1703.879" r="6.5" fill="red"/><circle cx="1836.5" cy="1703.879" r="6.5" stroke="#000" stroke-linecap="round" stroke-linejoin="round" stroke-width="1"/></g><g id="Graphic_152"><circle cx="1836.5" cy="1781.39" r="6.5" fill="red"/><circle cx="1836.5" cy="1781.39" r="6.5" stroke="#000" stroke-linecap="round" stroke-linejoin="round" stroke-width="1"/></g><g id="Line_153"><line x1="1836.5" x2="1836.5" y1="1764.99" y2="1720.279" stroke="#000" stroke-linecap="round" stroke-linejoin="round" stroke-width="1" marker-end="url(#FilledArrow_Marker)" marker-start="url(#FilledArrow_Marker_2)"/></g><g id="Line_154"><line x1="1820.1" x2="1765.9" y1="1703.879" y2="1703.879" stroke="#000" stroke-linecap="round" stroke-linejoin="round" stroke-width="1" marker-end="url(#FilledArrow_Marker)" marker-start="url(#FilledArrow_Marker_2)"/></g><g id="Line_172"><line x1="1519" x2="1519" y1="1739.571" y2="1743.6" stroke="#000" stroke-linecap="round" stroke-linejoin="round" stroke-width="1" marker-end="url(#FilledArrow_Marker)" marker-start="url(#FilledArrow_Marker_2)"/></g></g></g></svg>